<?xml version="1.0" encoding="UTF-8"?>
<svg width="85px" height="85px" viewBox="0 0 85 85" version="1.1" xmlns="http://www.w3.org/2000/svg" xmlns:xlink="http://www.w3.org/1999/xlink">
    <!-- Generator: Sketch 58 (84663) - https://sketch.com -->
    <title>logo</title>
    <desc>Created with Sketch.</desc>
    <defs>
        <linearGradient x1="50%" y1="0%" x2="50%" y2="100%" id="linearGradient-1">
            <stop stop-color="#4A4A4A" offset="0%"></stop>
            <stop stop-color="#000000" offset="100%"></stop>
        </linearGradient>
    </defs>
    <g id="branding" stroke="none" stroke-width="1" fill="none" fill-rule="evenodd">
        <g id="logo" fill-rule="nonzero">
            <path d="M42.5,0 C65.9716875,0 85,19.0283125 85,42.5 C85,65.9716875 65.9716875,85 42.5,85 C19.0283125,85 0,65.9716875 0,42.5 C0,19.0283125 19.0283125,0 42.5,0 Z" id="Path" fill="#FFFFFF"></path>
            <g id="Group" transform="translate(18.000000, 23.000000)" fill="url(#linearGradient-1)">
                <path d="M48.201065,3.08798212 C48.2645886,3.35377593 48.3281122,3.61956975 48.3916358,3.88536356 C49.3202209,7.77072732 49.3149726,19.9981952 47.4630507,28.1117488 C45.6111286,36.2253022 44.1321787,39.0515035 41.0755289,42.5104494 C39.3060144,44.57072 36.9608121,46.0464067 34.8959462,47.0814652 C32.8310801,48.116524 28.314079,47.9956685 24.5966413,47.9956685 C20.8790076,47.9956685 16.3622027,48.116524 14.2973366,47.0814652 C12.2324707,46.0464067 9.8872684,44.57072 8.11775386,42.5104494 C5.06110384,39.0515035 3.5821542,36.2253022 1.73023207,28.1117488 C-0.121689857,19.9981952 -0.575673836,9.98658994 0.801646951,3.88536356 C0.860786276,3.6233892 0.917400672,3.37291501 0.971490139,3.13394157 C1.38589294,1.30302361 3.04341063,0 4.95802642,0 L44.2252197,0 C46.121828,0 47.7687619,1.27914996 48.201065,3.08798212 Z M44.2262871,6.4700247 C43.8804447,5.02295889 42.5628976,3.99963905 41.0456107,3.99963905 L8.10579949,3.99963905 C6.57426488,3.99963905 5.24834938,5.04186279 4.91669063,6.50640922 L4.91664796,6.50639982 C4.86447133,6.73680342 4.80937941,6.98048423 4.75137239,7.23744204 C3.60360517,12.3217974 3.98192498,20.6648017 5.52519346,27.4260963 C7.06846173,34.1873909 8.30091994,36.5425586 10.8481282,39.4250134 C12.3227238,41.1419059 14.2770588,42.3716445 15.9977805,43.2341935 C17.7185023,44.0967424 21.4825065,43.9960295 24.5805344,43.9960295 C27.6783991,43.9960295 31.4425666,44.0967424 33.1632884,43.2341935 C34.8840102,42.3716445 36.8383452,41.1419059 38.3129408,39.4250134 C40.860149,36.5425586 42.0926072,34.1873909 43.6358755,27.4260963 C45.179144,20.6648017 45.1835174,10.475245 44.4096965,7.23744204 C44.3485601,6.98163633 44.2874236,6.72583042 44.2262871,6.4700247 Z M40.8333333,27.9974733 C41.1528223,31.9051667 39.7917114,35.2381993 36.75,37.9965709 C32.1874332,42.1341285 27.1781185,41.99621 24.522776,41.99621 C21.8672935,41.99621 16.3333333,41.99621 12.25,37.9965709 C9.52777786,35.330145 8.16666668,31.9971124 8.16666668,27.9974733 L40.8333333,27.9974733 Z" id="Shape"></path>
            </g>
        </g>
    </g>
</svg>