<?xml version="1.0" encoding="UTF-8"?>
<svg width="85px" height="85px" viewBox="0 0 85 85" version="1.1" xmlns="http://www.w3.org/2000/svg" xmlns:xlink="http://www.w3.org/1999/xlink">
    <!-- Generator: Sketch 58 (84663) - https://sketch.com -->
    <title>logo</title>
    <desc>Created with Sketch.</desc>
    <g id="branding" stroke="none" stroke-width="1" fill="none" fill-rule="evenodd">
        <g id="logo" fill-rule="nonzero">
            <path d="M42.5,0 C65.9716875,0 85,19.0283125 85,42.5 C85,65.9716875 65.9716875,85 42.5,85 C19.0283125,85 0,65.9716875 0,42.5 C0,19.0283125 19.0283125,0 42.5,0 Z" id="Path" fill="#FFFFFF"></path>
            <g id="Group" transform="translate(22.000000, 27.000000)" fill="#000000">
                <path d="M41.3151986,2.65590429 C41.3696474,2.8845076 41.4240962,3.1131109 41.478545,3.34171421 C42.2744751,6.6834286 42.2699765,17.2 40.6826149,24.1782858 C39.095253,31.1565714 37.8275817,33.5873239 35.2075962,36.5622858 C33.6908694,38.3342785 31.6806961,39.6034835 29.910811,40.4937142 C28.1409257,41.3839451 24.2692105,41.28 21.0828354,41.28 C17.8962922,41.28 14.0247452,41.3839451 12.2548599,40.4937142 C10.4849748,39.6034835 8.47480147,38.3342785 6.95807472,36.5622858 C4.338089,33.5873239 3.07041787,31.1565714 1.48305605,24.1782858 C-0.1043056,17.2 -0.493434725,8.58924243 0.68712595,3.34171421 C0.7378168,3.11639593 0.786343425,2.90096868 0.832705825,2.69543298 C1.18790822,1.12070143 2.60863767,0 4.24973692,0 L37.9073312,0 C39.5329954,0 40.944653,1.10016824 41.3151986,2.65590429 Z M37.9082461,5.5647234 C37.6118097,4.32013449 36.4824836,3.44 35.181952,3.44 L6.94782812,3.44 C5.63508417,3.44 4.49858517,4.33639331 4.21430625,5.5960169 L4.21426967,5.59600882 C4.16954685,5.7941738 4.1223252,6.00375821 4.0726049,6.22476187 C3.08880442,10.5977021 3.41307855,17.7733333 4.7358801,23.5885714 C6.05868147,29.4038095 7.11507422,31.4294365 9.29839557,33.9085714 C10.5623346,35.3852322 12.2374789,36.4429028 13.7123833,37.1847619 C15.1872877,37.9266209 18.413577,37.84 21.0690294,37.84 C23.7243421,37.84 26.9507714,37.9266209 28.4256758,37.1847619 C29.9005801,36.4429028 31.5757244,35.3852322 32.8396635,33.9085714 C35.0229848,31.4294365 36.0793776,29.4038095 37.402179,23.5885714 C38.7249805,17.7733333 38.7287292,9.00952374 38.0654542,6.22476187 C38.0130515,6.0047491 37.9606488,5.78473616 37.9082461,5.5647234 Z M35,24.08 C35.2738477,27.4409196 34.1071811,30.3075863 31.5,32.68 C27.5892284,36.2386207 23.2955301,36.12 21.0195223,36.12 C18.7433944,36.12 14,36.12 10.5,32.68 C8.16666672,30.3866667 7,27.52 7,24.08 L35,24.08 Z" id="Shape"></path>
            </g>
        </g>
    </g>
</svg>